<svg width="34" height="34" viewBox="0 0 34 34" fill="none" xmlns="http://www.w3.org/2000/svg">
<g filter="url(#filter0_f_543_5709)">
<path d="M28.25 20.75C28.25 21.413 27.9866 22.0489 27.5178 22.5178C27.0489 22.9866 26.413 23.25 25.75 23.25H10.75L5.75 28.25V8.25C5.75 7.58696 6.01339 6.95107 6.48223 6.48223C6.95107 6.01339 7.58696 5.75 8.25 5.75H25.75C26.413 5.75 27.0489 6.01339 27.5178 6.48223C27.9866 6.95107 28.25 7.58696 28.25 8.25V20.75Z" stroke="#00F2F6" stroke-width="2.5" stroke-linecap="round" stroke-linejoin="round"/>
</g>
<path d="M28.25 20.75C28.25 21.413 27.9866 22.0489 27.5178 22.5178C27.0489 22.9866 26.413 23.25 25.75 23.25H10.75L5.75 28.25V8.25C5.75 7.58696 6.01339 6.95107 6.48223 6.48223C6.95107 6.01339 7.58696 5.75 8.25 5.75H25.75C26.413 5.75 27.0489 6.01339 27.5178 6.48223C27.9866 6.95107 28.25 7.58696 28.25 8.25V20.75Z" stroke="white" stroke-width="2.5" stroke-linecap="round" stroke-linejoin="round"/>
<defs>
<filter id="filter0_f_543_5709" x="-2" y="-2" width="2.375rem" height="2.375rem" filterUnits="userSpaceOnUse" color-interpolation-filters="sRGB">
<feFlood flood-opacity="0" result="BackgroundImageFix"/>
<feBlend mode="normal" in="SourceGraphic" in2="BackgroundImageFix" result="shape"/>
<feGaussianBlur stdDeviation="2" result="effect1_foregroundBlur_543_5709"/>
</filter>
</defs>
</svg>
