<svg width="32" height="32" viewBox="0 0 32 32" fill="none" xmlns="http://www.w3.org/2000/svg">
<g filter="url(#filter0_f_543_5729)">
<path d="M12.25 18.5L6 12.25L12.25 6" stroke="#00F2F6" stroke-width="2.5" stroke-linecap="round" stroke-linejoin="round"/>
<path d="M6 12.25H19.125C20.0278 12.25 20.9218 12.4278 21.7559 12.7733C22.5901 13.1188 23.348 13.6252 23.9864 14.2636C24.6248 14.902 25.1312 15.6599 25.4767 16.4941C25.8222 17.3282 26 18.2222 26 19.125C26 20.0278 25.8222 20.9218 25.4767 21.7559C25.1312 22.5901 24.6248 23.348 23.9864 23.9864C23.348 24.6248 22.5901 25.1312 21.7559 25.4767C20.9218 25.8222 20.0278 26 19.125 26H14.75" stroke="#00F2F6" stroke-width="2.5" stroke-linecap="round" stroke-linejoin="round"/>
</g>
<path d="M12.25 18.5L6 12.25L12.25 6" stroke="white" stroke-width="2.5" stroke-linecap="round" stroke-linejoin="round"/>
<path d="M6 12.25H19.125C20.0278 12.25 20.9218 12.4278 21.7559 12.7733C22.5901 13.1188 23.348 13.6252 23.9864 14.2636C24.6248 14.902 25.1312 15.6599 25.4767 16.4941C25.8222 17.3282 26 18.2222 26 19.125C26 20.0278 25.8222 20.9218 25.4767 21.7559C25.1312 22.5901 24.6248 23.348 23.9864 23.9864C23.348 24.6248 22.5901 25.1312 21.7559 25.4767C20.9218 25.8222 20.0278 26 19.125 26H14.75" stroke="white" stroke-width="2.5" stroke-linecap="round" stroke-linejoin="round"/>
<defs>
<filter id="filter0_f_543_5729" x="-3" y="-3" width="2.375rem" height="2.375rem" filterUnits="userSpaceOnUse" color-interpolation-filters="sRGB">
<feFlood flood-opacity="0" result="BackgroundImageFix"/>
<feBlend mode="normal" in="SourceGraphic" in2="BackgroundImageFix" result="shape"/>
<feGaussianBlur stdDeviation="2" result="effect1_foregroundBlur_543_5729"/>
</filter>
</defs>
</svg>
