<svg width="34" height="32" viewBox="0 0 34 32" fill="none" xmlns="http://www.w3.org/2000/svg">
<g filter="url(#filter0_f_543_5721)">
<path d="M26 16V11H8.5C7.83696 11 7.20107 10.7366 6.73223 10.2678C6.26339 9.79893 6 9.16304 6 8.5C6 7.125 7.125 6 8.5 6H23.5V11" stroke="#E820E5" stroke-width="2.5" stroke-linecap="round" stroke-linejoin="round"/>
<path d="M6 8.5V23.5C6 24.875 7.125 26 8.5 26H26V21" stroke="#E820E5" stroke-width="2.5" stroke-linecap="round" stroke-linejoin="round"/>
<path d="M23.5 16C22.837 16 22.2011 16.2634 21.7322 16.7322C21.2634 17.2011 21 17.837 21 18.5C21 19.875 22.125 21 23.5 21H28.5V16H23.5Z" stroke="#E820E5" stroke-width="2.5" stroke-linecap="round" stroke-linejoin="round"/>
</g>
<path d="M26 16V11H8.5C7.83696 11 7.20107 10.7366 6.73223 10.2678C6.26339 9.79893 6 9.16304 6 8.5C6 7.125 7.125 6 8.5 6H23.5V11" stroke="white" stroke-width="2.5" stroke-linecap="round" stroke-linejoin="round"/>
<path d="M6 8.5V23.5C6 24.875 7.125 26 8.5 26H26V21" stroke="white" stroke-width="2.5" stroke-linecap="round" stroke-linejoin="round"/>
<path d="M23.5 16C22.837 16 22.2011 16.2634 21.7322 16.7322C21.2634 17.2011 21 17.837 21 18.5C21 19.875 22.125 21 23.5 21H28.5V16H23.5Z" stroke="white" stroke-width="2.5" stroke-linecap="round" stroke-linejoin="round"/>
<defs>
<filter id="filter0_f_543_5721" x="-3" y="-3" width="2.375rem" height="2.375rem" filterUnits="userSpaceOnUse" color-interpolation-filters="sRGB">
<feFlood flood-opacity="0" result="BackgroundImageFix"/>
<feBlend mode="normal" in="SourceGraphic" in2="BackgroundImageFix" result="shape"/>
<feGaussianBlur stdDeviation="2" result="effect1_foregroundBlur_543_5721"/>
</filter>
</defs>
</svg>
