<svg width="25" height="26" viewBox="0 0 25 26" fill="none" xmlns="http://www.w3.org/2000/svg">
<path d="M15.6257 2.58325H9.37565C8.80035 2.58325 8.33398 3.04962 8.33398 3.62492V5.70825C8.33398 6.28355 8.80035 6.74992 9.37565 6.74992H15.6257C16.2009 6.74992 16.6673 6.28355 16.6673 5.70825V3.62492C16.6673 3.04962 16.2009 2.58325 15.6257 2.58325Z" stroke="white" stroke-width="2.08333" stroke-linecap="round" stroke-linejoin="round"/>
<path d="M16.668 4.66675H18.7513C19.3038 4.66675 19.8337 4.88624 20.2244 5.27694C20.6151 5.66764 20.8346 6.19755 20.8346 6.75008V21.3334C20.8346 21.8859 20.6151 22.4159 20.2244 22.8066C19.8337 23.1973 19.3038 23.4167 18.7513 23.4167H6.2513C5.69877 23.4167 5.16886 23.1973 4.77816 22.8066C4.38746 22.4159 4.16797 21.8859 4.16797 21.3334V6.75008C4.16797 6.19755 4.38746 5.66764 4.77816 5.27694C5.16886 4.88624 5.69877 4.66675 6.2513 4.66675H8.33464" stroke="white" stroke-width="2.08333" stroke-linecap="round" stroke-linejoin="round"/>
<path d="M12.5 11.9583H16.6667" stroke="white" stroke-width="2.08333" stroke-linecap="round" stroke-linejoin="round"/>
<path d="M12.5 17.1667H16.6667" stroke="white" stroke-width="2.08333" stroke-linecap="round" stroke-linejoin="round"/>
<path d="M8.33398 11.9583H8.34398" stroke="white" stroke-width="2.08333" stroke-linecap="round" stroke-linejoin="round"/>
<path d="M8.33398 17.1667H8.34398" stroke="white" stroke-width="2.08333" stroke-linecap="round" stroke-linejoin="round"/>
</svg>
