<svg width="25" height="25" viewBox="0 0 25 25" fill="none" xmlns="http://www.w3.org/2000/svg">
<path d="M12.5013 20.8333C14.7114 20.8333 16.8311 19.9553 18.3939 18.3925C19.9567 16.8297 20.8346 14.7101 20.8346 12.5C20.8346 10.2898 19.9567 8.17021 18.3939 6.6074C16.8311 5.0446 14.7114 4.16663 12.5013 4.16663C10.2912 4.16663 8.17155 5.0446 6.60875 6.6074C5.04594 8.17021 4.16797 10.2898 4.16797 12.5C4.16797 14.7101 5.04594 16.8297 6.60875 18.3925C8.17155 19.9553 10.2912 20.8333 12.5013 20.8333Z" stroke="black" stroke-width="2.08333" stroke-linecap="round" stroke-linejoin="round"/>
<path d="M12.5013 14.5833C13.0538 14.5833 13.5837 14.3638 13.9744 13.9731C14.3651 13.5824 14.5846 13.0525 14.5846 12.5C14.5846 11.9474 14.3651 11.4175 13.9744 11.0268C13.5837 10.6361 13.0538 10.4166 12.5013 10.4166C11.9488 10.4166 11.4189 10.6361 11.0282 11.0268C10.6375 11.4175 10.418 11.9474 10.418 12.5C10.418 13.0525 10.6375 13.5824 11.0282 13.9731C11.4189 14.3638 11.9488 14.5833 12.5013 14.5833Z" stroke="black" stroke-width="2.08333" stroke-linecap="round" stroke-linejoin="round"/>
<path d="M12.5 2.08325V4.16659" stroke="black" stroke-width="2.08333" stroke-linecap="round" stroke-linejoin="round"/>
<path d="M12.5 22.9166V20.8333" stroke="black" stroke-width="2.08333" stroke-linecap="round" stroke-linejoin="round"/>
<path d="M17.7096 21.5208L16.668 19.7188" stroke="black" stroke-width="2.08333" stroke-linecap="round" stroke-linejoin="round"/>
<path d="M11.4596 10.6979L7.29297 3.47913" stroke="black" stroke-width="2.08333" stroke-linecap="round" stroke-linejoin="round"/>
<path d="M21.5208 17.7083L19.7188 16.6666" stroke="black" stroke-width="2.08333" stroke-linecap="round" stroke-linejoin="round"/>
<path d="M3.47852 7.29163L5.2806 8.33329" stroke="black" stroke-width="2.08333" stroke-linecap="round" stroke-linejoin="round"/>
<path d="M14.584 12.5H22.9173" stroke="black" stroke-width="2.08333" stroke-linecap="round" stroke-linejoin="round"/>
<path d="M2.08398 12.5H4.16732" stroke="black" stroke-width="2.08333" stroke-linecap="round" stroke-linejoin="round"/>
<path d="M21.5208 7.29163L19.7188 8.33329" stroke="black" stroke-width="2.08333" stroke-linecap="round" stroke-linejoin="round"/>
<path d="M3.47852 17.7083L5.2806 16.6666" stroke="black" stroke-width="2.08333" stroke-linecap="round" stroke-linejoin="round"/>
<path d="M17.7096 3.47913L16.668 5.28121" stroke="black" stroke-width="2.08333" stroke-linecap="round" stroke-linejoin="round"/>
<path d="M11.4596 14.302L7.29297 21.5208" stroke="black" stroke-width="2.08333" stroke-linecap="round" stroke-linejoin="round"/>
</svg>
