<svg width="25" height="25" viewBox="0 0 25 25" fill="none" xmlns="http://www.w3.org/2000/svg">
<path d="M12.5013 20.8334C14.7114 20.8334 16.8311 19.9554 18.3939 18.3926C19.9567 16.8298 20.8346 14.7102 20.8346 12.5001C20.8346 10.2899 19.9567 8.17033 18.3939 6.60752C16.8311 5.04472 14.7114 4.16675 12.5013 4.16675C10.2912 4.16675 8.17155 5.04472 6.60875 6.60752C5.04594 8.17033 4.16797 10.2899 4.16797 12.5001C4.16797 14.7102 5.04594 16.8298 6.60875 18.3926C8.17155 19.9554 10.2912 20.8334 12.5013 20.8334Z" stroke="white" stroke-width="2.08333" stroke-linecap="round" stroke-linejoin="round"/>
<path d="M12.5013 14.5834C13.0538 14.5834 13.5837 14.3639 13.9744 13.9732C14.3651 13.5825 14.5846 13.0526 14.5846 12.5001C14.5846 11.9475 14.3651 11.4176 13.9744 11.0269C13.5837 10.6362 13.0538 10.4167 12.5013 10.4167C11.9488 10.4167 11.4189 10.6362 11.0282 11.0269C10.6375 11.4176 10.418 11.9475 10.418 12.5001C10.418 13.0526 10.6375 13.5825 11.0282 13.9732C11.4189 14.3639 11.9488 14.5834 12.5013 14.5834Z" stroke="white" stroke-width="2.08333" stroke-linecap="round" stroke-linejoin="round"/>
<path d="M12.5 2.08325V4.16659" stroke="white" stroke-width="2.08333" stroke-linecap="round" stroke-linejoin="round"/>
<path d="M12.5 22.9166V20.8333" stroke="white" stroke-width="2.08333" stroke-linecap="round" stroke-linejoin="round"/>
<path d="M17.7096 21.5208L16.668 19.7188" stroke="white" stroke-width="2.08333" stroke-linecap="round" stroke-linejoin="round"/>
<path d="M11.4596 10.698L7.29297 3.47925" stroke="white" stroke-width="2.08333" stroke-linecap="round" stroke-linejoin="round"/>
<path d="M21.5208 17.7084L19.7188 16.6667" stroke="white" stroke-width="2.08333" stroke-linecap="round" stroke-linejoin="round"/>
<path d="M3.47852 7.29175L5.2806 8.33341" stroke="white" stroke-width="2.08333" stroke-linecap="round" stroke-linejoin="round"/>
<path d="M14.584 12.5H22.9173" stroke="white" stroke-width="2.08333" stroke-linecap="round" stroke-linejoin="round"/>
<path d="M2.08398 12.5H4.16732" stroke="white" stroke-width="2.08333" stroke-linecap="round" stroke-linejoin="round"/>
<path d="M21.5208 7.29175L19.7188 8.33341" stroke="white" stroke-width="2.08333" stroke-linecap="round" stroke-linejoin="round"/>
<path d="M3.47852 17.7084L5.2806 16.6667" stroke="white" stroke-width="2.08333" stroke-linecap="round" stroke-linejoin="round"/>
<path d="M17.7096 3.47925L16.668 5.28133" stroke="white" stroke-width="2.08333" stroke-linecap="round" stroke-linejoin="round"/>
<path d="M11.4596 14.302L7.29297 21.5208" stroke="white" stroke-width="2.08333" stroke-linecap="round" stroke-linejoin="round"/>
</svg>
