<svg width="137" height="136" viewBox="0 0 137 136" fill="none" xmlns="http://www.w3.org/2000/svg">
<rect x="87.0576" y="112.98" width="25.1827" height="4.14387" transform="rotate(-62.8261 87.0576 112.98)" fill="#9F9F9F"/>
<rect x="68.8896" y="119.872" width="25.1827" height="4.14387" transform="rotate(-62.8261 68.8896 119.872)" fill="#9F9F9F"/>
<rect x="30.6748" y="84.1624" width="25.1827" height="4.14387" transform="rotate(-62.8261 30.6748 84.1624)" fill="#9F9F9F"/>
<path d="M50.2608 75.9634L54.3118 68.0722L58.9057 70.4305L54.8547 78.3217L60.2245 81.438L58.0373 86.2983L47.8307 80.466L50.2608 75.9634Z" fill="#9F9F9F"/>
<path d="M99.1261 56.5425L103.177 48.6513L107.771 51.0097L103.72 58.9008L109.09 62.0171L106.903 66.8774L96.6959 61.0451L99.1261 56.5425Z" fill="#9F9F9F"/>
<path d="M105.692 40.5562L108.298 35.478L111.255 36.9957L108.648 42.0738L112.103 44.0793L110.696 47.207L104.128 43.4537L105.692 40.5562Z" fill="#9F9F9F"/>
<rect x="49.4692" y="38.1333" width="8.65294" height="6.65611" transform="rotate(-62.8261 49.4692 38.1333)" fill="#9F9F9F"/>
<path d="M36.4786 39.0012L40.5295 31.1101L45.1234 33.4684L41.0725 41.3595L46.4422 44.4759L44.2551 49.3362L34.0484 43.5038L36.4786 39.0012Z" fill="#9F9F9F"/>
<rect x="60.8828" y="17.8899" width="16.4184" height="6.65611" transform="rotate(131.031 60.8828 17.8899)" fill="#9F9F9F"/>
<path d="M11.4185 84.7339L15.4695 76.8427L20.0634 79.2011L16.0125 87.0922L21.3822 90.2085L19.195 95.0688L8.98837 89.2365L11.4185 84.7339Z" fill="#9F9F9F"/>
<rect x="35.8237" y="63.6228" width="16.4184" height="6.65611" transform="rotate(131.031 35.8237 63.6228)" fill="#9F9F9F"/>
<rect x="78.2871" y="51.2893" width="8.65294" height="6.65611" transform="rotate(-62.8261 78.2871 51.2893)" fill="#9F9F9F"/>
<path d="M65.296 52.1572L69.3469 44.2661L73.9408 46.6244L69.8899 54.5155L75.2596 57.6319L73.0725 62.4922L62.8658 56.6598L65.296 52.1572Z" fill="#9F9F9F"/>
<rect x="89.7012" y="31.0459" width="16.4184" height="6.65611" transform="rotate(131.031 89.7012 31.0459)" fill="#9F9F9F"/>
<circle cx="47.4037" cy="103.547" r="5.21395" transform="rotate(87.3202 47.4037 103.547)" fill="#9F9F9F"/>
<path d="M1 91.24L45.7022 1L135.524 45.7022L89.5689 134.689L1 91.24Z" fill="black" fill-opacity="0.3" stroke="#1C1917" stroke-width="0.835556"/>
</svg>
