<svg width="176" height="208" viewBox="0 0 176 208" fill="none" xmlns="http://www.w3.org/2000/svg">
<rect x="73.8022" y="99.6423" width="25.1827" height="4.14387" transform="rotate(-62.8261 73.8022 99.6423)" fill="#9F9F9F"/>
<path d="M44.5225 71.396L48.5735 63.5049L53.1674 65.8632L49.1165 73.7543L54.4862 76.8706L52.299 81.7309L42.0924 75.8986L44.5225 71.396Z" fill="#9F9F9F"/>
<rect x="97.6323" y="70.8242" width="25.1827" height="4.14387" transform="rotate(-62.8261 97.6323 70.8242)" fill="#9F9F9F"/>
<path d="M68.3526 42.5779L72.4035 34.6867L76.9975 37.0451L72.9465 44.9362L78.3163 48.0525L76.1291 52.9128L65.9225 47.0805L68.3526 42.5779Z" fill="#9F9F9F"/>
<path d="M84.0147 50.0957L88.0657 42.2046L92.6596 44.5629L88.6086 52.454L93.9784 55.5703L91.7912 60.4306L81.5846 54.5983L84.0147 50.0957Z" fill="#9F9F9F"/>
<path d="M45.1729 142.814L49.2239 134.923L53.8178 137.282L49.7668 145.173L55.1366 148.289L52.9494 153.149L42.7428 147.317L45.1729 142.814Z" fill="#9F9F9F"/>
<path d="M60.8355 150.332L64.8865 142.441L69.4804 144.799L65.4294 152.691L70.7992 155.807L68.612 160.667L58.4054 154.835L60.8355 150.332Z" fill="#9F9F9F"/>
<rect x="54.4058" y="55.7888" width="25.1827" height="4.14387" transform="rotate(-62.8261 54.4058 55.7888)" fill="#9F9F9F"/>
<path d="M68.3526 70.143L72.4035 62.2519L76.9975 64.6102L72.9465 72.5014L78.3163 75.6177L76.1291 80.478L65.9225 74.6456L68.3526 70.143Z" fill="#9F9F9F"/>
<rect x="54.4058" y="83.3538" width="25.1827" height="4.14387" transform="rotate(-62.8261 54.4058 83.3538)" fill="#9F9F9F"/>
<path d="M149.795 21.2776L153.846 13.3864L158.44 15.7448L154.389 23.6359L159.759 26.7522L157.572 31.6125L147.365 25.7802L149.795 21.2776Z" fill="#9F9F9F"/>
<rect x="135.847" y="34.4888" width="25.1827" height="4.14387" transform="rotate(-62.8261 135.847 34.4888)" fill="#9F9F9F"/>
<path d="M50.8135 85.5343L61.6374 89.5281L55.2265 102.416L49.8146 100.419L47.3953 106.976L73.3304 120.33L70.0278 129.28L27.8144 106.846L32.5379 94.0448L46.0901 98.3357L50.8135 85.5343Z" fill="#9F9F9F"/>
<rect x="98.917" y="106.001" width="25.1827" height="6.65611" transform="rotate(-62.8261 98.917 106.001)" fill="#9F9F9F"/>
<rect x="85.103" y="133.566" width="25.1827" height="6.65611" transform="rotate(-62.8261 85.103 133.566)" fill="#9F9F9F"/>
<rect x="127.108" y="74.5833" width="25.1827" height="6.65611" transform="rotate(-62.8261 127.108 74.5833)" fill="#9F9F9F"/>
<rect x="113.294" y="102.148" width="25.1827" height="6.65611" transform="rotate(-62.8261 113.294 102.148)" fill="#9F9F9F"/>
<rect x="140.37" y="44.6465" width="16.4184" height="6.65611" transform="rotate(131.031 140.37 44.6465)" fill="#9F9F9F"/>
<rect x="60.3652" y="173.909" width="8.65294" height="6.65611" transform="rotate(10.6138 60.3652 173.909)" fill="#9F9F9F"/>
<path d="M55.8305 161.704L64.5489 163.338L63.5978 168.413L54.8793 166.779L53.4227 172.815L48.1407 172.104L50.822 160.658L55.8305 161.704Z" fill="#9F9F9F"/>
<rect x="83.022" y="179.08" width="16.4184" height="6.65611" transform="rotate(-155.529 83.022 179.08)" fill="#9F9F9F"/>
<circle cx="18.5096" cy="122.159" r="5.21395" transform="rotate(87.3202 18.5096 122.159)" fill="#9F9F9F"/>
<path d="M1 139.702L15.2044 107.116L63.6667 16.8756L122.991 47.3733L146.387 1L174.796 16.8756L85.3911 207.382H70.7689C43.3627 198.024 32.0548 166.719 29.8267 152.236L1 139.702Z" fill="black" fill-opacity="0.3" stroke="#1C1917" stroke-width="0.835556"/>
</svg>
