<svg width="92" height="122" viewBox="0 0 92 122" fill="none" xmlns="http://www.w3.org/2000/svg">
<path d="M17.4387 70.1616L9.69321 65.8387L12.2099 61.3296L19.9553 65.6525L23.2566 60.3944L28.0378 62.7493L21.854 72.7469L17.4387 70.1616Z" fill="#9F9F9F"/>
<rect x="7.13623" y="95.6208" width="25.1827" height="4.14387" transform="rotate(-62.8261 7.13623 95.6208)" fill="#9F9F9F"/>
<rect x="64.772" y="50.8445" width="8.65294" height="6.65611" transform="rotate(-62.8261 64.772 50.8445)" fill="#9F9F9F"/>
<path d="M51.7808 51.7124L55.8318 43.8213L60.4257 46.1796L56.3748 54.0707L61.7445 57.187L59.5573 62.0473L49.3507 56.215L51.7808 51.7124Z" fill="#9F9F9F"/>
<rect x="76.1855" y="30.6013" width="16.4184" height="6.65611" transform="rotate(131.031 76.1855 30.6013)" fill="#9F9F9F"/>
<rect x="30.9419" y="35.1826" width="8.65294" height="6.65611" transform="rotate(-62.8261 30.9419 35.1826)" fill="#9F9F9F"/>
<path d="M17.9508 36.0505L22.0017 28.1594L26.5956 30.5177L22.5447 38.4088L27.9144 41.5252L25.7273 46.3855L15.5206 40.5531L17.9508 36.0505Z" fill="#9F9F9F"/>
<rect x="42.3555" y="14.9392" width="16.4184" height="6.65611" transform="rotate(131.031 42.3555 14.9392)" fill="#9F9F9F"/>
<rect x="37.833" y="94.698" width="8.65294" height="6.65611" transform="rotate(-62.8261 37.833 94.698)" fill="#9F9F9F"/>
<path d="M24.8424 95.5659L28.8933 87.6748L33.4872 90.0331L29.4363 97.9242L34.806 101.041L32.6189 105.901L22.4122 100.068L24.8424 95.5659Z" fill="#9F9F9F"/>
<rect x="49.2471" y="74.4546" width="16.4184" height="6.65611" transform="rotate(131.031 49.2471 74.4546)" fill="#9F9F9F"/>
<circle cx="7.33749" cy="78.4315" r="5.21395" fill="#9F9F9F"/>
<path d="M0 61.5778L33.0044 1L91.0756 28.9911L45.12 120.484L0 99.1778V61.5778Z" fill="black" fill-opacity="0.3" stroke="#1C1917" stroke-width="0.835556"/>
</svg>
