<svg width="190" height="240" viewBox="0 0 190 240" fill="none" xmlns="http://www.w3.org/2000/svg">
<rect x="71.1548" y="65.4453" width="8.65294" height="6.65611" transform="rotate(-62.8261 71.1548 65.4453)" fill="#9F9F9F"/>
<rect x="85.5635" y="71.71" width="8.65294" height="6.65611" transform="rotate(-62.8261 85.5635 71.71)" fill="#9F9F9F"/>
<rect x="12.2656" y="183.85" width="8.65294" height="6.65611" transform="rotate(-62.8261 12.2656 183.85)" fill="#9F9F9F"/>
<rect x="72.3765" y="98.3181" width="25.1827" height="6.65611" transform="rotate(-62.8261 72.3765 98.3181)" fill="#9F9F9F"/>
<rect x="44.2158" y="123.377" width="25.1827" height="4.14387" transform="rotate(-62.8261 44.2158 123.377)" fill="#9F9F9F"/>
<rect x="57.999" y="124.63" width="25.1827" height="6.65611" transform="rotate(-62.8261 57.999 124.63)" fill="#9F9F9F"/>
<rect x="95.5874" y="98.9448" width="25.1827" height="6.65611" transform="rotate(-62.8261 95.5874 98.9448)" fill="#9F9F9F"/>
<rect x="26.6748" y="157.833" width="25.1827" height="6.65611" transform="rotate(-62.8261 26.6748 157.833)" fill="#9F9F9F"/>
<rect x="65.5303" y="79.1951" width="11.4334" height="6.65611" transform="rotate(-62.8261 65.5303 79.1951)" fill="#9F9F9F"/>
<rect x="50.481" y="141.843" width="11.4334" height="6.65611" transform="rotate(-62.8261 50.481 141.843)" fill="#9F9F9F"/>
<rect x="87.4429" y="144.677" width="25.1827" height="6.65611" transform="rotate(-62.8261 87.4429 144.677)" fill="#9F9F9F"/>
<rect x="81.1787" y="126.51" width="25.1827" height="6.65611" transform="rotate(-62.8261 81.1787 126.51)" fill="#9F9F9F"/>
<path d="M60.67 90.7456L64.7209 82.8545L69.3149 85.2128L65.2639 93.1039L70.6336 96.2202L68.4465 101.081L58.2398 95.2482L60.67 90.7456Z" fill="#9F9F9F"/>
<rect x="91.2021" y="192.916" width="25.1827" height="4.14387" transform="rotate(-62.8261 91.2021 192.916)" fill="#9F9F9F"/>
<rect x="121.272" y="146.557" width="25.1827" height="4.14387" transform="rotate(-62.8261 121.272 146.557)" fill="#9F9F9F"/>
<rect x="103.731" y="118.365" width="25.1827" height="4.14387" transform="rotate(-62.8261 103.731 118.365)" fill="#9F9F9F"/>
<path d="M107.655 160.285L111.706 152.394L116.3 154.752L112.249 162.643L117.619 165.759L115.432 170.62L105.225 164.787L107.655 160.285Z" fill="#9F9F9F"/>
<rect x="72.4082" y="139.369" width="8.65294" height="6.65611" transform="rotate(-62.8261 72.4082 139.369)" fill="#9F9F9F"/>
<rect x="73.6299" y="172.242" width="25.1827" height="6.65611" transform="rotate(-62.8261 73.6299 172.242)" fill="#9F9F9F"/>
<rect x="66.7837" y="153.12" width="11.4334" height="6.65611" transform="rotate(-62.8261 66.7837 153.12)" fill="#9F9F9F"/>
<path d="M153.254 75.0835L157.305 67.1924L161.899 69.5507L157.848 77.4418L163.218 80.5581L161.031 85.4184L150.824 79.5861L153.254 75.0835Z" fill="#9F9F9F"/>
<rect x="146.958" y="67.9187" width="11.4334" height="6.65611" transform="rotate(-62.8261 146.958 67.9187)" fill="#9F9F9F"/>
<path d="M164.532 56.2893L168.583 48.3982L173.177 50.7565L169.126 58.6476L174.495 61.7639L172.308 66.6242L162.102 60.7919L164.532 56.2893Z" fill="#9F9F9F"/>
<rect x="158.235" y="49.1243" width="11.4334" height="6.65611" transform="rotate(-62.8261 158.235 49.1243)" fill="#9F9F9F"/>
<path d="M61.9229 164.67L65.9739 156.779L70.5678 159.137L66.5168 167.028L71.8866 170.145L69.6994 175.005L59.4928 169.173L61.9229 164.67Z" fill="#9F9F9F"/>
<path d="M68.2134 178.808L79.0374 182.802L72.6264 195.691L67.2145 193.694L64.7952 200.25L90.7303 213.604L87.4277 222.554L45.2143 200.12L49.9378 187.319L63.49 191.61L68.2134 178.808Z" fill="#9F9F9F"/>
<path d="M147.332 113.767L142.025 115.778L137.834 98.7743L126.036 103.697L124.318 98.4545L135.869 93.5872L141.176 91.5769L147.332 113.767Z" fill="#9F9F9F"/>
<path d="M135.002 39.3745L139.052 31.4834L143.646 33.8417L139.595 41.7328L144.965 44.8492L142.778 49.7094L132.571 43.8771L135.002 39.3745Z" fill="#9F9F9F"/>
<rect x="121.054" y="52.5852" width="25.1827" height="4.14387" transform="rotate(-62.8261 121.054 52.5852)" fill="#9F9F9F"/>
<circle cx="105.813" cy="35.7203" r="5.21395" fill="#9F9F9F"/>
<g filter="url(#filter0_f_1261_3464)">
<path d="M152.804 33.32L95.1511 7L7 185.809L95.1511 232.6L182.884 52.5378L165.756 9.50667L152.804 33.32Z" stroke="#00F2F6" stroke-width="1.67111"/>
</g>
<path d="M152.804 33.32L95.1511 7L7 185.809L95.1511 232.6L182.884 52.5378L165.756 9.50667L152.804 33.32Z" fill="#00F2F6" fill-opacity="0.2" stroke="#00F2F6" stroke-width="1.67111"/>
<defs>
<filter id="filter0_f_1261_3464" x="0.043201" y="0.0541873" width="189.603" height="239.538" filterUnits="userSpaceOnUse" color-interpolation-filters="sRGB">
<feFlood flood-opacity="0" result="BackgroundImageFix"/>
<feBlend mode="normal" in="SourceGraphic" in2="BackgroundImageFix" result="shape"/>
<feGaussianBlur stdDeviation="2.92444" result="effect1_foregroundBlur_1261_3464"/>
</filter>
</defs>
</svg>
