<svg width="124" height="206" viewBox="0 0 124 206" fill="none" xmlns="http://www.w3.org/2000/svg">
<path d="M11.1094 141.103L15.1604 133.212L19.7543 135.57L15.7034 143.461L21.0731 146.578L18.886 151.438L8.67929 145.606L11.1094 141.103Z" fill="#9F9F9F"/>
<path d="M26.7716 148.621L30.8225 140.729L35.4164 143.088L31.3655 150.979L36.7352 154.095L34.5481 158.956L24.3414 153.123L26.7716 148.621Z" fill="#9F9F9F"/>
<path d="M34.9156 93.4907L38.9665 85.5996L43.5605 87.9579L39.5095 95.849L44.8792 98.9654L42.6921 103.826L32.4854 97.9933L34.9156 93.4907Z" fill="#9F9F9F"/>
<rect x="47.9375" y="153.061" width="25.1827" height="6.65611" transform="rotate(-62.8261 47.9375 153.061)" fill="#9F9F9F"/>
<rect x="34.1245" y="180.626" width="25.1827" height="6.65611" transform="rotate(-62.8261 34.1245 180.626)" fill="#9F9F9F"/>
<rect x="75.0186" y="97.0312" width="8.65294" height="6.65611" transform="rotate(97.934 75.0186 97.0312)" fill="#9F9F9F"/>
<circle cx="58.37" cy="83.4855" r="5.21395" transform="rotate(87.3202 58.37 83.4855)" fill="#9F9F9F"/>
<rect x="71.2593" y="115.199" width="8.65294" height="6.65611" transform="rotate(97.934 71.2593 115.199)" fill="#9F9F9F"/>
<circle cx="54.6117" cy="101.653" r="5.21395" transform="rotate(87.3202 54.6117 101.653)" fill="#9F9F9F"/>
<rect x="44.9478" y="122.717" width="8.65294" height="6.65611" transform="rotate(97.934 44.9478 122.717)" fill="#9F9F9F"/>
<circle cx="28.2992" cy="109.171" r="5.21395" transform="rotate(87.3202 28.2992 109.171)" fill="#9F9F9F"/>
<rect x="72.604" y="8.79297" width="8.65294" height="6.65611" transform="rotate(27.0251 72.604 8.79297)" fill="#9F9F9F"/>
<rect x="68.1689" y="15.3857" width="8.65294" height="16.4184" transform="rotate(27.0251 68.1689 15.3857)" fill="#9F9F9F"/>
<path d="M59.6519 32.3281L67.36 36.2599L64.0835 42.6833L73.833 51.8904L71.1361 59.8633L52.9443 45.4783L59.6519 32.3281Z" fill="#9F9F9F"/>
<rect x="95.9453" y="22.9036" width="8.65294" height="6.65611" transform="rotate(27.0251 95.9453 22.9036)" fill="#9F9F9F"/>
<rect x="91.5103" y="29.4961" width="8.65294" height="16.4184" transform="rotate(27.0251 91.5103 29.4961)" fill="#9F9F9F"/>
<path d="M82.9927 46.4382L90.7008 50.37L87.4244 56.7934L97.1739 66.0005L94.4769 73.9734L76.2851 59.5884L82.9927 46.4382Z" fill="#9F9F9F"/>
<rect x="91.9688" y="79.6333" width="8.65294" height="6.65611" transform="rotate(119.588 91.9688 79.6333)" fill="#9F9F9F"/>
<rect x="85.5811" y="74.9075" width="8.65294" height="16.4184" transform="rotate(119.588 85.5811 74.9075)" fill="#9F9F9F"/>
<path d="M69.0361 65.6414L64.7637 73.166L58.4932 69.6056L48.8593 78.9336L41.015 75.8829L56.1991 58.3525L69.0361 65.6414Z" fill="#9F9F9F"/>
<path d="M24.339 92.9111L68.2056 1L122.517 31.08C66.7015 148.726 38.2648 195.963 31.0233 204.876C29.6307 198.052 22.835 180.728 6.79232 166.022C-9.25035 151.316 11.8056 111.154 24.339 92.9111Z" fill="black" fill-opacity="0.3" stroke="#1C1917" stroke-width="0.835556"/>
</svg>
