<svg width="106" height="84" viewBox="0 0 106 84" fill="none" xmlns="http://www.w3.org/2000/svg">
<rect x="66.3457" y="53.9724" width="8.65294" height="6.65611" transform="rotate(10.6138 66.3457 53.9724)" fill="#9F9F9F"/>
<path d="M61.8114 41.7677L70.5298 43.4014L69.5787 48.477L60.8603 46.8432L59.4037 52.8784L54.1216 52.1673L56.8029 40.7216L61.8114 41.7677Z" fill="#9F9F9F"/>
<rect x="89.0029" y="59.1433" width="16.4184" height="6.65611" transform="rotate(-155.529 89.0029 59.1433)" fill="#9F9F9F"/>
<rect x="22.4922" y="30.7927" width="8.65294" height="6.65611" transform="rotate(10.6138 22.4922 30.7927)" fill="#9F9F9F"/>
<path d="M17.9579 18.588L26.6763 20.2217L25.7252 25.2973L17.0068 23.6635L15.5502 29.6987L10.2681 28.9876L12.9494 17.5419L17.9579 18.588Z" fill="#9F9F9F"/>
<rect x="45.1494" y="35.9634" width="16.4184" height="6.65611" transform="rotate(-155.529 45.1494 35.9634)" fill="#9F9F9F"/>
<circle cx="39.9545" cy="43.6832" r="5.21395" transform="rotate(87.3202 39.9545 43.6832)" fill="#9F9F9F"/>
<circle cx="57.5013" cy="63.7364" r="5.21395" transform="rotate(87.3202 57.5013 63.7364)" fill="#9F9F9F"/>
<circle cx="40.7899" cy="59.5587" r="5.21395" transform="rotate(87.3202 40.7899 59.5587)" fill="#9F9F9F"/>
<path d="M54.915 83.3022C10.4634 62.5804 0.464589 19.8 1.02163 1L104.631 52.8044C97.9461 63.8338 80.1209 68.2622 72.0438 69.0978L63.6883 73.2756L54.915 83.3022Z" fill="black" fill-opacity="0.3" stroke="#1C1917" stroke-width="0.835556"/>
</svg>
