<svg width="160" height="170" viewBox="0 0 160 170" fill="none" xmlns="http://www.w3.org/2000/svg">
<rect x="104.011" y="40.8147" width="25.1827" height="6.65611" transform="rotate(-62.8261 104.011 40.8147)" fill="#9F9F9F"/>
<rect x="88.9756" y="35.5066" width="8.65294" height="6.65611" transform="rotate(-62.8261 88.9756 35.5066)" fill="#9F9F9F"/>
<rect x="90.1973" y="68.3799" width="25.1827" height="6.65611" transform="rotate(-62.8261 90.1973 68.3799)" fill="#9F9F9F"/>
<rect x="83.3516" y="49.2568" width="11.4334" height="6.65611" transform="rotate(-62.8261 83.3516 49.2568)" fill="#9F9F9F"/>
<path d="M78.4903 60.8071L82.5412 52.916L87.1352 55.2743L83.0842 63.1654L88.454 66.2818L86.2668 71.1421L76.0601 65.3097L78.4903 60.8071Z" fill="#9F9F9F"/>
<path d="M60.3247 49.0126L71.1487 53.0064L64.7378 65.8946L59.3258 63.8977L56.9065 70.4546L82.8416 83.8079L79.539 92.7585L37.3257 70.3244L42.0491 57.523L55.6013 61.814L60.3247 49.0126Z" fill="#9F9F9F"/>
<path d="M31.7907 113.729L26.632 111.365L35.7885 96.4369L23.9969 91.4991L26.5212 86.5935L38.0997 91.3944L43.2584 93.7589L31.7907 113.729Z" fill="#9F9F9F"/>
<path d="M24.8539 98.5485L29.514 101.787L17.8649 114.863L28.599 121.805L25.248 126.188L14.6995 119.418L10.0394 116.179L24.8539 98.5485Z" fill="#9F9F9F"/>
<rect x="73.8208" y="137.206" width="25.1827" height="4.14387" transform="rotate(-144.709 73.8208 137.206)" fill="#9F9F9F"/>
<rect x="61.1514" y="134.335" width="25.1827" height="4.14387" transform="rotate(34.2592 61.1514 134.335)" fill="#9F9F9F"/>
<rect x="102.558" y="93.0659" width="25.1827" height="4.14387" transform="rotate(-64.1189 102.558 93.0659)" fill="#9F9F9F"/>
<rect x="103.318" y="80.0977" width="25.1827" height="4.14387" transform="rotate(114.849 103.318 80.0977)" fill="#9F9F9F"/>
<rect x="121.352" y="58.6099" width="25.1827" height="4.14387" transform="rotate(-64.1189 121.352 58.6099)" fill="#9F9F9F"/>
<rect x="122.112" y="45.6414" width="25.1827" height="4.14387" transform="rotate(114.849 122.112 45.6414)" fill="#9F9F9F"/>
<path d="M74.9467 46.12L48.2089 33.5867L1 123.409L89.9867 169.364L158.92 31.4978L98.76 1L74.9467 46.12Z" fill="black" fill-opacity="0.3" stroke="#1C1917" stroke-width="0.835556"/>
</svg>
