<svg width="155" height="150" viewBox="0 0 155 150" fill="none" xmlns="http://www.w3.org/2000/svg">
<path d="M108.92 31.4215L119.744 35.4153L113.333 48.3036L107.922 46.3067L105.502 52.8635L131.437 66.2168L128.135 75.1674L85.9214 52.7334L90.6448 39.932L104.197 44.2229L108.92 31.4215Z" fill="#9F9F9F"/>
<circle cx="23.9896" cy="132.818" r="5.21395" transform="rotate(169.513 23.9896 132.818)" fill="#9F9F9F"/>
<path d="M71.3292 23.1687L75.3801 15.2776L79.974 17.6359L75.9231 25.527L81.2928 28.6433L79.1057 33.5036L68.899 27.6713L71.3292 23.1687Z" fill="#9F9F9F"/>
<rect x="57.3823" y="36.3796" width="25.1827" height="4.14387" transform="rotate(-62.8261 57.3823 36.3796)" fill="#9F9F9F"/>
<path d="M60.6396 53.4881L56.1171 61.1188L51.6748 58.4859L56.1973 50.8553L51.0266 47.4187L53.5048 42.7002L63.3386 49.1414L60.6396 53.4881Z" fill="#9F9F9F"/>
<rect x="75.3633" y="41.1484" width="25.1827" height="4.14387" transform="rotate(120.654 75.3633 41.1484)" fill="#9F9F9F"/>
<path d="M47.2403 70.3945L52.2809 63.0957L56.53 66.0302L51.4894 73.3289L56.4093 77.1157L53.61 81.6511L44.2464 74.5437L47.2403 70.3945Z" fill="#9F9F9F"/>
<rect x="31.6963" y="81.6838" width="25.1827" height="4.14387" transform="rotate(-55.3705 31.6963 81.6838)" fill="#9F9F9F"/>
<path d="M24.3438 115.261L28.3948 107.37L32.9887 109.728L28.9377 117.62L34.3075 120.736L32.1203 125.596L21.9137 119.764L24.3438 115.261Z" fill="#9F9F9F"/>
<rect x="10.396" y="128.472" width="25.1827" height="4.14387" transform="rotate(-62.8261 10.396 128.472)" fill="#9F9F9F"/>
<path d="M1 133.853L66.5911 1L153.907 42.36L135.107 85.8089L71.6044 57.8178L27.32 149.311L1 133.853Z" fill="black" fill-opacity="0.3" stroke="#1C1917" stroke-width="0.835556"/>
</svg>
