<svg width="106" height="142" viewBox="0 0 106 142" fill="none" xmlns="http://www.w3.org/2000/svg">
<rect x="49.9658" y="60.4807" width="25.1827" height="4.14387" transform="rotate(-62.8261 49.9658 60.4807)" fill="#9F9F9F"/>
<rect x="55.1152" y="32.9561" width="16.4184" height="6.65611" transform="rotate(131.031 55.1152 32.9561)" fill="#9F9F9F"/>
<rect x="24.3442" y="46.7544" width="25.1827" height="4.14387" transform="rotate(67.2971 24.3442 46.7544)" fill="#9F9F9F"/>
<rect x="42.0728" y="68.4294" width="16.4184" height="6.65611" transform="rotate(-98.8459 42.0728 68.4294)" fill="#9F9F9F"/>
<path d="M35.1611 38.2474L29.8543 40.2577L25.6634 23.2543L13.8656 28.1772L12.1477 22.9345L23.6984 18.0672L29.0052 16.0569L35.1611 38.2474Z" fill="#9F9F9F"/>
<circle cx="39.1263" cy="81.0218" r="5.21395" transform="rotate(169.513 39.1263 81.0218)" fill="#9F9F9F"/>
<rect x="81.8081" y="59.9895" width="25.1827" height="4.14387" transform="rotate(118.206 81.8081 59.9895)" fill="#9F9F9F"/>
<rect x="80.5225" y="72.9163" width="25.1827" height="4.14387" transform="rotate(-62.8261 80.5225 72.9163)" fill="#9F9F9F"/>
<rect x="65.5195" y="94.4458" width="25.1827" height="4.14387" transform="rotate(118.206 65.5195 94.4458)" fill="#9F9F9F"/>
<rect x="64.2339" y="107.373" width="25.1827" height="4.14387" transform="rotate(-62.8261 64.2339 107.373)" fill="#9F9F9F"/>
<path d="M105.027 51.9689L1 1L39.8533 117.56L34.0044 128.422L61.5778 140.956L105.027 51.9689Z" fill="black" fill-opacity="0.3" stroke="#1C1917" stroke-width="0.835556"/>
</svg>
