<svg width="127" height="167" viewBox="0 0 127 167" fill="none" xmlns="http://www.w3.org/2000/svg">
<rect x="36.9849" y="118.121" width="8.65294" height="6.65611" transform="rotate(10.6138 36.9849 118.121)" fill="#9F9F9F"/>
<path d="M32.4496 105.917L41.168 107.55L40.2169 112.626L31.4985 110.992L30.0419 117.027L24.7598 116.316L27.4411 104.871L32.4496 105.917Z" fill="#9F9F9F"/>
<rect x="59.6416" y="123.292" width="16.4184" height="6.65611" transform="rotate(-155.529 59.6416 123.292)" fill="#9F9F9F"/>
<rect x="57.647" y="130.724" width="8.65294" height="6.65611" transform="rotate(103.182 57.647 130.724)" fill="#9F9F9F"/>
<rect x="51.4663" y="153.126" width="16.4184" height="6.65611" transform="rotate(-62.9607 51.4663 153.126)" fill="#9F9F9F"/>
<rect x="40.145" y="135.988" width="8.65294" height="6.65611" transform="rotate(-165.067 40.145 135.988)" fill="#9F9F9F"/>
<rect x="17.9419" y="129.125" width="16.4184" height="6.65611" transform="rotate(28.79 17.9419 129.125)" fill="#9F9F9F"/>
<path d="M69.1525 36.9173L66.6055 45.4139L61.6591 43.9311L64.2061 35.4345L58.3589 33.3475L59.6249 28.1703L70.7226 32.0476L69.1525 36.9173Z" fill="#9F9F9F"/>
<rect x="80.4624" y="21.3887" width="25.1827" height="4.14387" transform="rotate(106.687 80.4624 21.3887)" fill="#9F9F9F"/>
<path d="M102.857 32.8033L105.964 24.4949L110.801 26.3033L107.694 34.6117L113.39 37.0829L111.782 42.1644L100.967 37.5578L102.857 32.8033Z" fill="#9F9F9F"/>
<rect x="90.54" y="47.5457" width="25.1827" height="4.14387" transform="rotate(-69.5003 90.54 47.5457)" fill="#9F9F9F"/>
<path d="M55.4973 90.2451L51.3049 98.062L46.7542 95.6213L50.9465 87.8044L45.6338 84.5919L47.9081 79.7717L58.0081 85.787L55.4973 90.2451Z" fill="#9F9F9F"/>
<rect x="69.6802" y="77.2874" width="25.1827" height="4.14387" transform="rotate(118.206 69.6802 77.2874)" fill="#9F9F9F"/>
<circle cx="75.3158" cy="12.4923" r="5.21395" transform="rotate(169.513 75.3158 12.4923)" fill="#9F9F9F"/>
<path d="M82.3419 77.0034L86.3928 69.1123L90.9867 71.4706L86.9358 79.3617L92.3055 82.4781L90.1184 87.3384L79.9117 81.506L82.3419 77.0034Z" fill="#9F9F9F"/>
<rect x="68.3945" y="90.2144" width="25.1827" height="4.14387" transform="rotate(-62.8261 68.3945 90.2144)" fill="#9F9F9F"/>
<circle cx="53.1534" cy="73.3492" r="5.21395" fill="#9F9F9F"/>
<path d="M1 137.196L69.9333 1L125.916 29.4089L59.4889 165.604L1 137.196Z" fill="black" fill-opacity="0.3" stroke="#1C1917" stroke-width="0.835556"/>
</svg>
