<svg width="167" height="168" viewBox="0 0 167 168" fill="none" xmlns="http://www.w3.org/2000/svg">
<rect x="19.396" y="107.751" width="11.4334" height="6.65611" transform="rotate(-62.8261 19.396 107.751)" fill="#9F9F9F"/>
<rect x="83.1382" y="44.4998" width="25.1827" height="6.65611" transform="rotate(27.6148 83.1382 44.4998)" fill="#9F9F9F"/>
<rect x="56.9375" y="29.9199" width="25.1827" height="6.65611" transform="rotate(27.6148 56.9375 29.9199)" fill="#9F9F9F"/>
<path d="M90.8006 32.8517L98.6603 36.9633L96.2667 41.5389L88.407 37.4274L85.2494 42.7729L80.4061 40.5485L86.3168 30.387L90.8006 32.8517Z" fill="#9F9F9F"/>
<rect x="63.0903" y="93.365" width="25.1827" height="6.65611" transform="rotate(27.6148 63.0903 93.365)" fill="#9F9F9F"/>
<rect x="36.8901" y="78.7852" width="25.1827" height="6.65611" transform="rotate(27.6148 36.8901 78.7852)" fill="#9F9F9F"/>
<path d="M70.7532 81.717L78.613 85.8285L76.2194 90.4041L68.3597 86.2926L65.2021 91.6382L60.3587 89.4137L66.2695 79.2522L70.7532 81.717Z" fill="#9F9F9F"/>
<rect x="127.743" y="44.6375" width="25.1827" height="6.65611" transform="rotate(-153.412 127.743 44.6375)" fill="#9F9F9F"/>
<rect x="154.201" y="58.7454" width="25.1827" height="6.65611" transform="rotate(-153.412 154.201 58.7454)" fill="#9F9F9F"/>
<path d="M120.291 56.421L112.359 52.451L114.67 47.8332L122.602 51.8032L125.663 46.4019L130.546 48.5393L124.818 58.805L120.291 56.421Z" fill="#9F9F9F"/>
<rect x="40.8335" y="116.264" width="16.4184" height="6.65611" transform="rotate(131.031 40.8335 116.264)" fill="#9F9F9F"/>
<rect x="58.2373" y="125.292" width="11.4334" height="6.65611" transform="rotate(-62.8261 58.2373 125.292)" fill="#9F9F9F"/>
<rect x="79.6753" y="133.806" width="16.4184" height="6.65611" transform="rotate(131.031 79.6753 133.806)" fill="#9F9F9F"/>
<rect x="38.8164" y="132.81" width="11.4334" height="6.65611" transform="rotate(-62.8261 38.8164 132.81)" fill="#9F9F9F"/>
<rect x="60.2544" y="141.323" width="16.4184" height="6.65611" transform="rotate(131.031 60.2544 141.323)" fill="#9F9F9F"/>
<rect x="43.8286" y="62.6445" width="11.4334" height="6.65611" transform="rotate(-62.8261 43.8286 62.6445)" fill="#9F9F9F"/>
<rect x="65.2661" y="71.1577" width="16.4184" height="6.65611" transform="rotate(131.031 65.2661 71.1577)" fill="#9F9F9F"/>
<path d="M1 132.182L67.8444 1L165.604 48.6267L148.058 92.4933L111.293 75.7822L69.9333 163.933L63.6667 166.858L1 132.182Z" fill="black" fill-opacity="0.3" stroke="#1C1917" stroke-width="0.835556"/>
</svg>
