<svg width="232" height="153" viewBox="0 0 232 153" fill="none" xmlns="http://www.w3.org/2000/svg">
<rect x="21.5327" y="46.7932" width="8.65294" height="6.65611" transform="rotate(-150.833 21.5327 46.7932)" fill="#9F9F9F"/>
<rect x="39.146" y="52.8918" width="11.4334" height="6.65611" transform="rotate(-150.833 39.146 52.8918)" fill="#9F9F9F"/>
<path d="M54.5724 58.1519L46.827 53.8289L49.3437 49.3198L57.0891 53.6427L60.3903 48.3847L65.1716 50.7395L58.9878 60.7372L54.5724 58.1519Z" fill="#9F9F9F"/>
<path d="M27.4128 24.3108L19.6673 19.9879L22.184 15.4787L29.9294 19.8017L33.2307 14.5436L38.012 16.8985L31.8281 26.8961L27.4128 24.3108Z" fill="#9F9F9F"/>
<path d="M44.3268 34.9609L36.5814 30.638L39.0981 26.1289L46.8435 30.4518L50.1447 25.1937L54.926 27.5486L48.7422 37.5462L44.3268 34.9609Z" fill="#9F9F9F"/>
<rect x="183.126" y="119.309" width="25.1827" height="4.14387" transform="rotate(-62.8261 183.126 119.309)" fill="#9F9F9F"/>
<path d="M171.389 107.978L175.44 100.086L180.034 102.445L175.983 110.336L181.352 113.452L179.165 118.312L168.959 112.48L171.389 107.978Z" fill="#9F9F9F"/>
<rect x="157.44" y="121.188" width="25.1827" height="4.14387" transform="rotate(-62.8261 157.44 121.188)" fill="#9F9F9F"/>
<rect x="111.081" y="82.677" width="8.65294" height="6.65611" transform="rotate(-62.8261 111.081 82.677)" fill="#9F9F9F"/>
<path d="M98.0904 83.5447L102.141 75.6535L106.735 78.0118L102.684 85.903L108.054 89.0193L105.867 93.8796L95.6602 88.0473L98.0904 83.5447Z" fill="#9F9F9F"/>
<rect x="122.496" y="62.4336" width="16.4184" height="6.65611" transform="rotate(131.031 122.496 62.4336)" fill="#9F9F9F"/>
<rect x="87.9014" y="72.0269" width="8.65294" height="6.65611" transform="rotate(-62.8261 87.9014 72.0269)" fill="#9F9F9F"/>
<path d="M74.9112 72.8948L78.9621 65.0036L83.5561 67.3619L79.5051 75.2531L84.8749 78.3694L82.6877 83.2297L72.481 77.3974L74.9112 72.8948Z" fill="#9F9F9F"/>
<rect x="99.3159" y="51.7837" width="16.4184" height="6.65611" transform="rotate(131.031 99.3159 51.7837)" fill="#9F9F9F"/>
<rect x="202.547" y="128.41" width="8.65294" height="6.65611" transform="rotate(-62.8261 202.547 128.41)" fill="#9F9F9F"/>
<path d="M189.556 129.278L193.607 121.386L198.201 123.745L194.15 131.636L199.52 134.752L197.333 139.613L187.126 133.78L189.556 129.278Z" fill="#9F9F9F"/>
<rect x="213.961" y="108.167" width="16.4184" height="6.65611" transform="rotate(131.031 213.961 108.167)" fill="#9F9F9F"/>
<rect x="156.509" y="88.3271" width="8.65294" height="6.65611" transform="rotate(10.6138 156.509 88.3271)" fill="#9F9F9F"/>
<path d="M151.975 76.1222L160.693 77.7559L159.742 82.8315L151.023 81.1977L149.567 87.2329L144.285 86.5218L146.966 75.0761L151.975 76.1222Z" fill="#9F9F9F"/>
<rect x="179.167" y="93.4978" width="16.4184" height="6.65611" transform="rotate(-155.529 179.167 93.4978)" fill="#9F9F9F"/>
<circle cx="142.2" cy="104.323" r="5.21395" fill="#9F9F9F"/>
<circle cx="74.5294" cy="52.4056" r="5.21395" fill="#9F9F9F"/>
<circle cx="56.7799" cy="41.9776" r="5.21395" fill="#9F9F9F"/>
<path d="M230.778 105.027L24.8133 1L1 45.7022L209.471 152.236L230.778 105.027Z" fill="black" fill-opacity="0.3" stroke="#1C1917" stroke-width="0.835556"/>
</svg>
