<svg width="26" height="26" viewBox="0 0 26 26" fill="none" xmlns="http://www.w3.org/2000/svg">
<path d="M10.8335 2.16663H15.1668" stroke="white" stroke-width="2.16667" stroke-linecap="round" stroke-linejoin="round"/>
<path d="M13 15.1667V10.8334" stroke="white" stroke-width="2.16667" stroke-linecap="round" stroke-linejoin="round"/>
<path d="M4.3335 14.0832C4.59876 11.9772 5.62771 10.0418 7.22518 8.64397C8.82265 7.24618 10.8776 6.48326 13.0002 6.4999C14.402 6.50139 15.7826 6.84293 17.0235 7.49522C18.2644 8.14752 19.3285 9.09109 20.1246 10.245C20.9207 11.3989 21.425 12.7287 21.5942 14.1204C21.7635 15.512 21.5926 16.9239 21.0962 18.235C20.5999 19.5461 19.7929 20.7172 18.7445 21.6479C17.6962 22.5785 16.4376 23.241 15.077 23.5784C13.7163 23.9159 12.2941 23.9182 10.9323 23.5852C9.57057 23.2522 8.30991 22.5938 7.2585 21.6666L4.3335 19.0666" stroke="white" stroke-width="2.16667" stroke-linecap="round" stroke-linejoin="round"/>
<path d="M9.75016 18.4166H4.3335V23.8333" stroke="white" stroke-width="2.16667" stroke-linecap="round" stroke-linejoin="round"/>
</svg>
