<svg width="676" height="741" viewBox="0 0 676 741" fill="none" xmlns="http://www.w3.org/2000/svg">
<path fill-rule="evenodd" clip-rule="evenodd" d="M29.3463 458.968L-1.72852 440.225V437.758L31.3193 456.009L51.0494 435.785L54.5021 424.44C3.204 392.478 -3.04385 350.946 0.244489 334.176L14.5488 340.588L34.7721 296.195L8.62976 284.85L0.244489 300.141V291.756L72.2592 141.808L49.5696 130.956L0.244489 229.606V223.194L47.1034 128.983L26.3868 119.118L0.244489 169.43V163.017L23.9205 117.145L0.244489 105.307V101.854L74.7254 138.848L142.301 0.73774H145.754L175.842 15.042L181.761 0.73774H186.2L178.308 16.0285L205.93 29.8396L214.809 10.1095L211.356 0.73774H214.809L217.275 6.65675L219.741 0.73774H222.701L218.261 10.1095L228.62 41.6776L236.019 45.1303L258.215 -0.742013L288.303 14.0555L295.209 0.73774H298.661L291.756 16.0285L318.885 28.8531L333.189 0.73774H337.135L321.844 30.8261L349.466 44.6371L373.142 -1.72852L530.983 77.6849L507.8 123.557C523.584 131.12 559.098 148.516 574.882 157.592C592.524 167.736 588.476 175.119 580.721 189.263L580.719 189.266C579.802 190.939 578.833 192.707 577.842 194.585C570.46 208.571 569.505 209.094 560.997 213.746C558.703 215 555.859 216.555 552.193 218.755C538.382 227.041 537.888 243.911 539.368 251.309C586.227 271.533 620.261 310.006 628.153 320.858C634.467 329.539 662.352 354.399 675.505 365.744L671.066 372.156L672.546 376.595C655.94 363.277 617.696 333.485 597.572 320.858C577.447 308.23 550.384 280.411 539.368 268.08C534.238 264.923 526.379 269.724 523.091 272.519L511.746 302.114C511.887 306.497 512.018 310.647 512.143 314.58L512.179 315.707L512.182 315.807L512.185 315.902C513.822 367.568 514.253 381.158 518.114 393.691C519.492 398.165 521.308 402.503 523.771 408.391C526.558 415.054 530.176 423.701 534.929 436.772C552.291 484.518 555.645 512.239 555.152 520.131C550.367 529.701 549.89 540.681 549.426 551.343C548.695 568.161 547.998 584.187 530.49 592.639C507.603 603.688 492.345 588.035 487.577 578.828C480.671 563.537 464.788 529.404 456.502 515.199C448.215 500.993 432.333 501.716 425.427 503.854L402.244 516.678L387.94 531.476L383.994 537.888L358.838 573.896L347.493 588.693L341.081 601.518L337.551 626.673C340.625 634.283 342.591 642.866 343.923 648.683L343.924 648.684C344.352 650.553 344.714 652.136 345.027 653.309C346.605 659.228 367.059 678.465 377.088 687.343L442.198 741.108H425.92L351.439 680.931L337.628 661.201L325.297 625.687L320.858 618.288L271.533 566.497C232.467 581.492 201.655 570.443 191.133 563.044L146.247 534.435L31.3193 460.448L27.3733 464.394L0.244489 450.583V449.103L27.3733 462.421L29.3463 458.968ZM10.6028 280.904L34.7721 291.756L56.9684 251.309L31.8126 238.485L10.6028 280.904ZM40.6911 293.729L60.4211 254.269L90.0162 265.614L68.8064 308.526L40.6911 293.729ZM37.7316 299.155L17.5083 341.081L45.1303 355.385L65.8469 312.472L37.7316 299.155ZM79.1647 363.277L68.8064 366.237L48.0899 356.865L70.2862 313.952L97.415 328.257L79.1647 363.277ZM93.469 267.587L71.7659 310.006L97.415 324.31L119.118 280.904L93.469 267.587ZM101.361 324.31L121.584 282.877L149.206 296.195L128.49 338.615L101.361 324.31ZM99.8812 328.257L84.0972 360.811L132.436 345.027L99.8812 328.257ZM78.1782 372.156L81.1377 366.237L121.584 353.412L103.334 384.98L78.1782 372.156ZM2.71074 337.628C1.06657 352.097 9.41896 388.532 55.9819 418.521L64.3671 407.67L73.2457 403.231C81.6309 402.08 99.388 397.608 103.334 388.926L2.71074 337.628ZM127.503 350.946L138.848 347.493L157.098 357.852L134.902 399.778L108.266 384.98L127.503 350.946ZM269.066 563.044C252.789 569.128 212.441 575.474 181.268 552.193C150.094 528.911 103.827 500.401 84.5904 489.056L76.6984 472.286V452.556C74.561 442.855 67.8199 423.158 57.9549 421.974L66.8334 410.629L76.6984 405.697C82.1242 405.204 93.8636 403.329 97.415 399.778C100.966 396.227 104.814 391.721 106.293 389.913L133.916 403.231L118.625 434.306L152.166 450.583C151.837 453.214 152.363 460.053 157.098 466.367C161.834 472.68 180.446 493.989 189.16 503.854C185.871 507.636 182.254 516.678 194.092 522.597H200.998C202.806 522.269 207.015 520.526 209.383 516.185L251.803 524.077C249.83 531.312 250.52 549.233 269.066 563.044ZM122.571 432.333L135.889 405.697L164.497 419.015L152.166 447.13L122.571 432.333ZM53.5156 435.785L34.2788 457.982L76.6984 486.097L70.7794 472.286C70.4506 458.31 67.0307 429.768 55.9819 427.4L53.5156 435.785ZM167.95 420.988L222.208 448.117C219.84 454.036 220.235 461.105 220.728 463.901L216.782 470.806L201.491 499.908C198.334 498.33 193.27 499.908 191.133 500.894L170.416 476.725C152.659 460.152 154.797 445.815 158.085 440.718L167.95 420.988ZM182.747 312.472L138.848 401.258L195.572 430.853L239.965 341.081L182.747 312.472ZM225.66 445.157L290.769 310.006L265.614 296.195L199.025 432.333L225.66 445.157ZM222.208 470.806L204.45 500.894C206.423 502.703 210.172 507.701 209.383 513.226L251.803 521.611C250.816 515.692 246.574 502.078 237.498 494.975C228.422 487.873 223.523 475.903 222.208 470.806ZM264.134 519.145C270.447 519.145 283.535 494.153 289.29 481.658L356.865 343.054L301.621 314.445L257.722 405.697C244.075 425.098 221.912 467.452 242.431 481.658C262.95 495.863 265.449 512.568 264.134 519.145ZM264.134 523.091C268.08 535.093 277.057 559.591 281.398 561.564C286.823 564.031 319.378 567.977 313.952 540.354C309.612 518.257 292.085 504.84 283.864 500.894C278.931 508.293 268.08 523.091 264.134 523.091ZM315.925 529.503C312.374 520.822 294.058 504.512 285.344 497.442L339.601 386.46L360.318 345.027L424.934 377.088C425.328 385.375 429.373 385.474 431.346 384.487C439.238 424.736 426.085 448.281 418.521 455.022C393.201 448.117 345.027 443.776 354.892 481.658C364.757 519.539 333.025 529.339 315.925 529.503ZM316.912 533.942C320.693 545.123 333.288 565.609 353.412 558.112C360.976 549.726 377.384 532.265 382.514 529.503C387.644 526.741 396.49 516.843 400.271 512.239C398.956 500.566 400.271 473.864 416.055 460.448C412.274 456.009 398.989 449.103 376.102 456.995C369.196 460.119 356.076 471.891 358.838 493.989C362.291 521.611 340.588 531.476 316.912 533.942ZM285.344 565.51L303.594 567.483L315.925 559.591L318.391 544.3C322.009 550.219 332.4 562.255 345.027 563.044L320.858 604.93C310.059 593.532 293.907 575.315 285.344 565.51ZM323.324 607.51C325.745 610.017 327.781 612.04 329.243 613.356C331.464 615.355 333.385 618.103 335.051 621.248L340.095 592.639L347.493 582.281L382.514 533.942L354.892 561.564L347.493 563.044L323.324 607.51ZM416.055 466.86C421.58 461.73 431.839 440.06 436.279 429.866C441.549 432.981 444.144 438.306 446.548 443.243C449.095 448.47 451.428 453.26 456.502 454.529C464.394 456.502 471.957 470.806 474.752 477.712L511.253 555.645C501.782 563.537 509.609 571.429 514.705 574.389V592.639C509.576 594.612 503.361 590.502 500.894 588.2C493.496 586.227 479.191 558.112 471.299 536.409C464.986 519.046 454.2 507.471 449.596 503.854C432.628 493.594 412.602 505.169 404.71 512.239C398.791 499.415 409.15 473.272 416.055 466.86ZM492.016 428.386C482.644 434.799 463.407 448.314 461.434 451.076C457.653 449.761 449.399 445.256 446.637 437.758C443.875 430.261 438.58 427.729 436.279 427.4C437.265 415.398 438.252 390.012 434.306 384.487C436.114 382.679 439.041 377.976 436.279 373.636L458.968 321.351L492.016 428.386ZM527.037 537.888L493.496 432.333L463.407 453.049C472.878 456.206 501.552 522.104 514.705 554.659H520.624L527.037 537.888ZM517.172 574.389L518.158 592.639C524.796 593.461 539.22 590.469 543.807 571.923C546.487 561.088 547.093 550.684 547.633 541.416C548.248 530.854 548.777 521.767 552.193 515.199C547.26 492.345 536.113 444.96 530.983 438.252C527.43 433.605 519.182 433.654 511.694 433.698C505.668 433.733 500.134 433.765 497.935 431.346L530.983 537.888L523.091 557.125C525.228 559.92 528.517 566.595 524.57 570.936C520.625 575.277 517.994 575.047 517.172 574.389ZM496.455 427.4L529.996 433.812C517.119 411.368 514.945 396.884 513.443 386.878C512.931 383.47 512.498 380.581 511.746 378.075C509.378 370.183 508.129 323.16 507.8 300.634L476.725 286.33L460.448 316.418L496.455 427.4ZM539.368 258.215C562.058 281.562 612.568 330.525 633.086 339.601C615.822 317.569 572.909 270.447 539.368 258.215ZM509.773 297.182L526.543 256.242L430.853 206.917L411.616 247.857L509.773 297.182ZM408.656 251.309L387.447 294.222L452.063 326.777L472.779 283.864L408.656 251.309ZM434.306 369.69L449.596 330.723L384.487 297.182L363.771 339.601L426.907 373.636C428.091 371.663 432.333 370.183 434.306 369.69ZM325.79 269.56L380.541 295.702L360.318 338.615L303.594 311.486L325.79 269.56ZM404.71 249.336L348.973 223.687L327.763 264.627L384.487 291.756L404.71 249.336ZM141.808 346.014L165.977 338.615L158.578 353.412L141.808 346.014ZM169.43 332.696L138.848 343.054L131.449 340.588L154.139 298.168L179.788 311.486L169.43 332.696ZM176.335 251.309L261.668 294.222L242.431 338.615L154.139 294.222L176.335 251.309ZM34.7721 232.073L55.4886 191.133L170.416 250.323L149.206 291.756L34.7721 232.073ZM168.936 191.133L147.233 232.566L293.236 305.074L313.952 262.161L168.936 191.133ZM86.5634 201.491L154.139 68.3131L209.383 96.9217L143.781 232.073L86.5634 201.491ZM124.051 53.5156L56.9684 185.707L83.1107 199.518L150.193 66.3401L124.051 53.5156ZM203.957 34.7721L145.754 6.65675L125.53 47.1033L181.761 76.6984L203.957 34.7721ZM214.809 16.0285L230.1 54.9954L213.329 91.496L186.2 78.1782L214.809 16.0285ZM239.471 45.1303L260.681 5.177L315.925 32.7991L297.675 73.7389L239.471 45.1303ZM236.019 52.0359L234.046 56.4751L252.296 111.226L272.519 121.584L293.236 79.6579L236.019 52.0359ZM193.599 138.355L231.579 62.3941L246.377 102.841L220.235 152.659L193.599 138.355ZM193.599 145.26L170.416 186.693L197.545 199.518L218.755 157.592L193.599 145.26ZM250.323 115.665L244.404 111.226L200.998 201.491L228.62 215.302L260.681 146.74L250.323 115.665ZM255.749 119.118L293.236 232.566L331.709 156.112L255.749 119.118ZM232.073 215.302L261.668 152.659L290.769 236.512L286.33 245.39L232.073 215.302ZM334.669 158.085L290.769 247.857L315.925 258.708L358.838 170.909L334.669 158.085ZM306.553 138.355L327.763 96.9217L382.514 123.557L360.811 164.497L306.553 138.355ZM297.675 81.6309L276.465 121.584L302.114 135.889L324.31 95.442L297.675 81.6309ZM300.141 76.2052L320.365 35.2653L350.453 50.0629L374.622 3.69725L429.373 32.7991L386.46 119.118L300.141 76.2052ZM440.225 36.7451L396.325 121.584L422.467 135.889L464.887 48.0899L440.225 36.7451ZM425.92 138.355L446.637 96.9217L472.286 111.226L453.049 150.686L425.92 138.355ZM505.827 121.584L446.637 93.469L467.847 50.0629L525.557 79.1647L505.827 121.584ZM534.929 140.328L476.725 111.226L455.515 152.659L513.226 183.241L534.929 140.328ZM536.902 142.794L516.185 184.72L542.328 198.038L563.537 155.619L536.902 142.794ZM545.78 200.504L566.497 157.592C582.281 161.538 584.254 171.731 583.267 176.335C578.927 192.908 564.688 206.917 558.112 211.849C556.928 207.903 549.397 202.642 545.78 200.504ZM453.049 159.565C459.133 162.853 470.905 174.461 469.326 194.585L460.448 213.329L402.737 184.72L422.467 143.781L453.049 159.565ZM478.698 198.038C477.12 185.411 471.793 172.06 469.326 166.963C483.959 174.527 516.777 191.034 530.983 196.558C545.188 202.083 553.015 209.712 555.152 212.836C544.892 217.571 533.778 237.169 529.503 246.377C513.226 235.525 480.277 210.665 478.698 198.038ZM470.806 198.038L462.914 214.315L489.55 229.113L470.806 198.038ZM425.92 204.944L370.676 176.335L350.453 219.248L406.19 246.377L425.92 204.944ZM394.352 129.97L374.622 169.43L399.778 183.241L420.001 142.794L394.352 129.97ZM510.266 564.031C509.477 560.085 513.883 558.44 516.185 558.112C517.172 558.112 519.638 558.802 521.611 561.564C524.077 565.017 520.625 569.456 518.158 570.936C515.692 572.416 511.253 568.963 510.266 564.031ZM195.079 503.854C192.612 504.779 188.173 508.146 190.146 514.212C192.119 520.279 199.189 520.028 202.477 519.145C205.766 513.555 208.89 502.67 195.079 503.854ZM428.88 378.568C428.485 376.99 430.031 375.609 430.853 375.115C431.346 375.115 432.628 375.411 433.812 376.595C435.292 378.075 433.319 380.541 432.332 381.034C431.346 381.528 429.373 380.541 428.88 378.568Z" fill="#C2C2C2"/>
<path d="M370.676 176.335L425.92 204.944L406.19 246.377L350.453 219.248L370.676 176.335Z" fill="white"/>
<path d="M348.973 223.687L404.71 249.336L384.487 291.756L327.763 264.627L348.973 223.687Z" fill="white"/>
<path d="M526.543 256.242L509.773 297.182L411.616 247.857L430.853 206.917L526.543 256.242Z" fill="white"/>
<path d="M408.656 251.309L387.447 294.222L452.063 326.777L472.779 283.864L408.656 251.309Z" fill="white"/>
<path d="M449.596 330.723L434.306 369.69C432.333 370.183 428.091 371.663 426.907 373.636L363.771 339.601L384.487 297.182L449.596 330.723Z" fill="white"/>
<path d="M325.79 269.56L380.541 295.702L360.318 338.615L303.594 311.486L325.79 269.56Z" fill="white"/>
<path d="M289.29 481.658C283.535 494.153 270.447 519.145 264.134 519.145C265.449 512.568 262.95 495.863 242.431 481.658C221.912 467.452 244.075 425.098 257.722 405.697L301.621 314.445L356.865 343.054L289.29 481.658Z" fill="white"/>
<path d="M290.769 310.006L225.66 445.157L199.025 432.333L265.614 296.195L290.769 310.006Z" fill="white"/>
<path d="M176.335 251.309L261.668 294.222L242.431 338.615L154.139 294.222L176.335 251.309Z" fill="white"/>
<path d="M182.747 312.472L138.848 401.258L195.572 430.853L239.965 341.081L182.747 312.472Z" fill="white"/>
<path d="M138.848 347.493L127.503 350.946L108.266 384.98L134.902 399.778L157.098 357.852L138.848 347.493Z" fill="white"/>
<path d="M167.95 420.988L158.085 440.718C154.797 445.815 152.659 460.152 170.416 476.725L191.133 500.894C193.27 499.908 198.334 498.33 201.491 499.908L216.782 470.806L220.728 463.901C220.235 461.105 219.84 454.036 222.208 448.117L167.95 420.988Z" fill="white"/>
<path d="M394.352 129.97L374.622 169.43L399.778 183.241L420.001 142.794L394.352 129.97Z" fill="white"/>
<path d="M440.225 36.7451L396.325 121.584L422.467 135.889L464.887 48.0899L440.225 36.7451Z" fill="white"/>
<path d="M505.827 121.584L446.637 93.469L467.847 50.0629L525.557 79.1647L505.827 121.584Z" fill="white"/>
<path d="M320.365 35.2653L300.141 76.2052L386.46 119.118L429.373 32.7991L374.622 3.69725L350.453 50.0629L320.365 35.2653Z" fill="white"/>
<path d="M327.763 96.9217L306.553 138.355L360.811 164.497L382.514 123.557L327.763 96.9217Z" fill="white"/>
<path d="M297.675 81.6309L276.465 121.584L302.114 135.889L324.31 95.442L297.675 81.6309Z" fill="white"/>
<path d="M255.749 119.118L293.236 232.566L331.709 156.112L255.749 119.118Z" fill="white"/>
<path d="M334.669 158.085L290.769 247.857L315.925 258.708L358.838 170.909L334.669 158.085Z" fill="white"/>
<path d="M168.936 191.133L147.233 232.566L293.236 305.074L313.952 262.161L168.936 191.133Z" fill="white"/>
<path d="M55.4886 191.133L34.7721 232.073L149.206 291.756L170.416 250.323L55.4886 191.133Z" fill="white"/>
<path d="M121.584 282.877L101.361 324.31L128.49 338.615L149.206 296.195L121.584 282.877Z" fill="white"/>
<path d="M138.848 343.054L169.43 332.696L179.788 311.486L154.139 298.168L131.449 340.588L138.848 343.054Z" fill="white"/>
<path d="M68.8064 366.237L79.1647 363.277L97.415 328.257L70.2862 313.952L48.0899 356.865L68.8064 366.237Z" fill="white"/>
<path d="M261.668 152.659L232.073 215.302L286.33 245.39L290.769 236.512L261.668 152.659Z" fill="white"/>
<path d="M244.404 111.226L250.323 115.665L260.681 146.74L228.62 215.302L200.998 201.491L244.404 111.226Z" fill="white"/>
<path d="M231.579 62.3941L193.599 138.355L220.235 152.659L246.377 102.841L231.579 62.3941Z" fill="white"/>
<path d="M145.754 6.65675L203.957 34.7721L181.761 76.6984L125.53 47.1033L145.754 6.65675Z" fill="white"/>
<path d="M214.809 16.0285L230.1 54.9954L213.329 91.496L186.2 78.1782L214.809 16.0285Z" fill="white"/>
<path d="M154.139 68.3131L86.5634 201.491L143.781 232.073L209.383 96.9217L154.139 68.3131Z" fill="white"/>
<path d="M193.599 145.26L170.416 186.693L197.545 199.518L218.755 157.592L193.599 145.26Z" fill="white"/>
<path d="M124.051 53.5156L56.9684 185.707L83.1107 199.518L150.193 66.3401L124.051 53.5156Z" fill="white"/>
<path d="M60.4211 254.269L40.6911 293.729L68.8064 308.526L90.0162 265.614L60.4211 254.269Z" fill="white"/>
<path d="M93.469 267.587L71.7659 310.006L97.415 324.31L119.118 280.904L93.469 267.587Z" fill="white"/>
<path d="M37.7316 299.155L17.5083 341.081L45.1303 355.385L65.8469 312.472L37.7316 299.155Z" fill="white"/>
<path d="M10.6028 280.904L34.7721 291.756L56.9684 251.309L31.8126 238.485L10.6028 280.904Z" fill="white"/>
<path d="M2.71074 337.628C1.06657 352.097 9.41896 388.532 55.9819 418.521L64.3671 407.67L73.2457 403.231C81.6309 402.08 99.388 397.608 103.334 388.926L2.71074 337.628Z" fill="white"/>
<path d="M8.62976 284.85L0.244489 300.141V334.176L14.5488 340.588L34.7721 296.195L8.62976 284.85Z" fill="white"/>
</svg>
