<svg width="678" height="741" viewBox="0 0 678 741" fill="none" xmlns="http://www.w3.org/2000/svg">
<path fill-rule="evenodd" clip-rule="evenodd" d="M476.619 741.601H339.466L327.752 731.729L312.133 722.845L296.514 710.506L279.431 694.711L268.693 684.839H261.86L250.634 688.788H237.455L227.694 684.839L226.229 682.372H227.694L230.134 679.904L226.229 671.019L224.765 661.148L164.242 609.815L134.469 587.111L89.5647 554.534L76.8745 541.701L70.0412 540.714L64.1842 536.766L62.2318 531.336L0.244629 497.279V0.737793H471.738L479.059 6.66075L496.63 9.12865L509.809 14.558L518.594 21.9617L531.284 23.936L538.118 24.9232L539.582 29.859L544.951 35.782L553.248 37.2627L563.01 45.6536L566.427 52.5637L574.724 51.0829L585.462 54.538L590.831 57.9931L592.784 64.4096L597.664 67.3711L602.545 72.8004C602.545 74.9393 602.643 79.4144 603.033 80.2041C603.424 80.9939 609.704 88.1014 612.795 91.5565L620.116 107.351L632.319 139.927L650.866 181.882L662.092 211.003L663.068 243.579L650.378 300.341L648.426 306.264L651.842 313.667L660.628 331.93L664.533 340.321L672.83 350.686L677.223 358.583L675.27 365L670.878 372.403L672.83 376.846V425.71V442.492L668.437 482.472L662.092 495.798L651.354 509.125L634.271 517.022L627.438 530.843L624.021 565.393L616.212 600.437L611.819 620.674V630.052V636.962L608.402 642.885L601.081 644.859L598.153 647.327L596.688 654.237L589.855 666.083L579.117 667.071L572.772 668.551L564.963 672.994L560.082 676.942H553.737L545.927 672.994L539.582 668.551L527.38 663.122L500.535 649.302L482.476 633.507L473.69 617.713V609.322L465.881 596.982L448.309 574.771L440.5 568.355L429.762 565.393H419.024L389.251 570.329L368.263 590.072L349.228 611.296L346.787 633.507L354.597 649.302L366.799 658.68L389.251 672.994L414.631 693.724C418.699 696.192 426.931 701.325 427.322 702.115C427.712 702.904 440.175 715.277 446.357 721.364L469.297 735.185L476.619 741.601Z" fill="#E1F3CA"/>
</svg>
