<svg width="25" height="25" viewBox="0 0 25 25" fill="none" xmlns="http://www.w3.org/2000/svg">
<path d="M15.6257 2.08334H9.37565C8.80035 2.08334 8.33398 2.54971 8.33398 3.12501V5.20834C8.33398 5.78364 8.80035 6.25001 9.37565 6.25001H15.6257C16.2009 6.25001 16.6673 5.78364 16.6673 5.20834V3.12501C16.6673 2.54971 16.2009 2.08334 15.6257 2.08334Z" stroke="white" stroke-width="2.08333" stroke-linecap="round" stroke-linejoin="round"/>
<path d="M16.667 4.16667H18.7503C19.3029 4.16667 19.8328 4.38617 20.2235 4.77687C20.6142 5.16757 20.8337 5.69747 20.8337 6.25001V20.8333C20.8337 21.3859 20.6142 21.9158 20.2235 22.3065C19.8328 22.6972 19.3029 22.9167 18.7503 22.9167H6.25033C5.69779 22.9167 5.16789 22.6972 4.77719 22.3065C4.38649 21.9158 4.16699 21.3859 4.16699 20.8333V6.25001C4.16699 5.69747 4.38649 5.16757 4.77719 4.77687C5.16789 4.38617 5.69779 4.16667 6.25033 4.16667H8.33366" stroke="white" stroke-width="2.08333" stroke-linecap="round" stroke-linejoin="round"/>
<path d="M12.5 11.4583H16.6667" stroke="white" stroke-width="2.08333" stroke-linecap="round" stroke-linejoin="round"/>
<path d="M12.5 16.6667H16.6667" stroke="white" stroke-width="2.08333" stroke-linecap="round" stroke-linejoin="round"/>
<path d="M8.33398 11.4583H8.34398" stroke="white" stroke-width="2.08333" stroke-linecap="round" stroke-linejoin="round"/>
<path d="M8.33398 16.6667H8.34398" stroke="white" stroke-width="2.08333" stroke-linecap="round" stroke-linejoin="round"/>
</svg>
