<svg width="25" height="25" viewBox="0 0 25 25" fill="none" xmlns="http://www.w3.org/2000/svg">
<path d="M12.5003 20.8333C14.7105 20.8333 16.8301 19.9553 18.3929 18.3925C19.9557 16.8297 20.8337 14.7101 20.8337 12.5C20.8337 10.2898 19.9557 8.17022 18.3929 6.60742C16.8301 5.04462 14.7105 4.16664 12.5003 4.16664C10.2902 4.16664 8.17057 5.04462 6.60777 6.60742C5.04497 8.17022 4.16699 10.2898 4.16699 12.5C4.16699 14.7101 5.04497 16.8297 6.60777 18.3925C8.17057 19.9553 10.2902 20.8333 12.5003 20.8333Z" stroke="white" stroke-width="2.08333" stroke-linecap="round" stroke-linejoin="round"/>
<path d="M12.5003 14.5833C13.0529 14.5833 13.5828 14.3638 13.9735 13.9731C14.3642 13.5824 14.5837 13.0525 14.5837 12.5C14.5837 11.9474 14.3642 11.4175 13.9735 11.0268C13.5828 10.6361 13.0529 10.4166 12.5003 10.4166C11.9478 10.4166 11.4179 10.6361 11.0272 11.0268C10.6365 11.4175 10.417 11.9474 10.417 12.5C10.417 13.0525 10.6365 13.5824 11.0272 13.9731C11.4179 14.3638 11.9478 14.5833 12.5003 14.5833Z" stroke="white" stroke-width="2.08333" stroke-linecap="round" stroke-linejoin="round"/>
<path d="M12.5 2.08331V4.16665" stroke="white" stroke-width="2.08333" stroke-linecap="round" stroke-linejoin="round"/>
<path d="M12.5 22.9166V20.8333" stroke="white" stroke-width="2.08333" stroke-linecap="round" stroke-linejoin="round"/>
<path d="M17.7087 21.5208L16.667 19.7187" stroke="white" stroke-width="2.08333" stroke-linecap="round" stroke-linejoin="round"/>
<path d="M11.4587 10.6979L7.29199 3.47917" stroke="white" stroke-width="2.08333" stroke-linecap="round" stroke-linejoin="round"/>
<path d="M21.5208 17.7083L19.7188 16.6666" stroke="white" stroke-width="2.08333" stroke-linecap="round" stroke-linejoin="round"/>
<path d="M3.47925 7.29164L5.28133 8.33331" stroke="white" stroke-width="2.08333" stroke-linecap="round" stroke-linejoin="round"/>
<path d="M14.584 12.5H22.9173" stroke="white" stroke-width="2.08333" stroke-linecap="round" stroke-linejoin="round"/>
<path d="M2.08398 12.5H4.16732" stroke="white" stroke-width="2.08333" stroke-linecap="round" stroke-linejoin="round"/>
<path d="M21.5208 7.29164L19.7188 8.33331" stroke="white" stroke-width="2.08333" stroke-linecap="round" stroke-linejoin="round"/>
<path d="M3.47925 17.7083L5.28133 16.6666" stroke="white" stroke-width="2.08333" stroke-linecap="round" stroke-linejoin="round"/>
<path d="M17.7087 3.47917L16.667 5.28126" stroke="white" stroke-width="2.08333" stroke-linecap="round" stroke-linejoin="round"/>
<path d="M11.4587 14.302L7.29199 21.5208" stroke="white" stroke-width="2.08333" stroke-linecap="round" stroke-linejoin="round"/>
</svg>
