<svg width="25" height="25" viewBox="0 0 25 25" fill="none" xmlns="http://www.w3.org/2000/svg">
<g clip-path="url(#clip0_371_1659)">
<path d="M10.4167 13.5417C10.8641 14.1397 11.4348 14.6346 12.0902 14.9927C12.7456 15.3507 13.4704 15.5637 14.2153 15.617C14.9603 15.6704 15.708 15.5629 16.4077 15.3019C17.1075 15.0408 17.7429 14.6324 18.2709 14.1042L21.3959 10.9792C22.3447 9.99688 22.8696 8.68124 22.8578 7.31563C22.8459 5.95003 22.2981 4.64371 21.3325 3.67804C20.3668 2.71238 19.0605 2.16462 17.6949 2.15275C16.3293 2.14089 15.0136 2.66586 14.0313 3.6146L12.2397 5.39585" stroke="white" stroke-width="2.5" stroke-linecap="round" stroke-linejoin="round"/>
<path d="M14.5833 11.4583C14.136 10.8603 13.5652 10.3654 12.9098 10.0074C12.2544 9.64928 11.5296 9.43635 10.7847 9.383C10.0398 9.32965 9.29206 9.43713 8.59231 9.69816C7.89256 9.95918 7.25714 10.3676 6.72913 10.8958L3.60413 14.0208C2.65539 15.0031 2.13042 16.3188 2.14229 17.6844C2.15415 19.05 2.70191 20.3563 3.66758 21.322C4.63324 22.2876 5.93956 22.8354 7.30517 22.8473C8.67077 22.8591 9.98641 22.3342 10.9687 21.3854L12.75 19.6042" stroke="white" stroke-width="2.5" stroke-linecap="round" stroke-linejoin="round"/>
</g>
<defs>
<clipPath id="clip0_371_1659">
<rect width="25" height="25" fill="white"/>
</clipPath>
</defs>
</svg>
