<svg width="25" height="25" viewBox="0 0 25 25" fill="none" xmlns="http://www.w3.org/2000/svg">
<path d="M12.4999 13.5417C13.0752 13.5417 13.5416 13.0753 13.5416 12.5C13.5416 11.9247 13.0752 11.4583 12.4999 11.4583C11.9246 11.4583 11.4583 11.9247 11.4583 12.5C11.4583 13.0753 11.9246 13.5417 12.4999 13.5417Z" stroke="white" stroke-width="2.5" stroke-linecap="round" stroke-linejoin="round"/>
<path d="M12.4999 6.25001C13.0752 6.25001 13.5416 5.78364 13.5416 5.20834C13.5416 4.63304 13.0752 4.16667 12.4999 4.16667C11.9246 4.16667 11.4583 4.63304 11.4583 5.20834C11.4583 5.78364 11.9246 6.25001 12.4999 6.25001Z" stroke="white" stroke-width="2.5" stroke-linecap="round" stroke-linejoin="round"/>
<path d="M12.4999 20.8333C13.0752 20.8333 13.5416 20.367 13.5416 19.7917C13.5416 19.2164 13.0752 18.75 12.4999 18.75C11.9246 18.75 11.4583 19.2164 11.4583 19.7917C11.4583 20.367 11.9246 20.8333 12.4999 20.8333Z" stroke="white" stroke-width="2.5" stroke-linecap="round" stroke-linejoin="round"/>
</svg>
