<svg width="7" height="24" viewBox="0 0 7 24" fill="none" xmlns="http://www.w3.org/2000/svg">
<path d="M1.656 15.224L0.664 0.599998H6.616L5.624 15.224H1.656ZM3.64 23.256C2.744 23.256 2.008 22.968 1.432 22.392C0.856 21.816 0.568 21.1333 0.568 20.344C0.568 19.5333 0.856 18.8613 1.432 18.328C2.008 17.7733 2.744 17.496 3.64 17.496C4.55733 17.496 5.29333 17.7733 5.848 18.328C6.424 18.8613 6.712 19.5333 6.712 20.344C6.712 21.1333 6.424 21.816 5.848 22.392C5.29333 22.968 4.55733 23.256 3.64 23.256Z" fill="#4A4A4A"/>
</svg>
