<svg width="25" height="25" viewBox="0 0 25 25" fill="none" xmlns="http://www.w3.org/2000/svg">
<g clip-path="url(#clip0_371_1665)">
<path d="M8.33341 22.9167C8.90871 22.9167 9.37508 22.4503 9.37508 21.875C9.37508 21.2997 8.90871 20.8333 8.33341 20.8333C7.75812 20.8333 7.29175 21.2997 7.29175 21.875C7.29175 22.4503 7.75812 22.9167 8.33341 22.9167Z" stroke="white" stroke-width="2.5" stroke-linecap="round" stroke-linejoin="round"/>
<path d="M19.7917 22.9167C20.367 22.9167 20.8333 22.4503 20.8333 21.875C20.8333 21.2997 20.367 20.8333 19.7917 20.8333C19.2164 20.8333 18.75 21.2997 18.75 21.875C18.75 22.4503 19.2164 22.9167 19.7917 22.9167Z" stroke="white" stroke-width="2.5" stroke-linecap="round" stroke-linejoin="round"/>
<path d="M2.1355 2.13541H4.21883L6.98966 15.0729C7.09131 15.5467 7.35495 15.9703 7.7352 16.2707C8.11545 16.5711 8.58852 16.7295 9.073 16.7187H19.2605C19.7346 16.718 20.1943 16.5555 20.5637 16.2582C20.933 15.9608 21.1898 15.5464 21.2917 15.0833L23.0105 7.34374H5.33341" stroke="white" stroke-width="2.5" stroke-linecap="round" stroke-linejoin="round"/>
</g>
<defs>
<clipPath id="clip0_371_1665">
<rect width="25" height="25" fill="white"/>
</clipPath>
</defs>
</svg>
