<svg width="25" height="25" viewBox="0 0 25 25" fill="none" xmlns="http://www.w3.org/2000/svg">
<path d="M10.4167 2.08334H14.5834" stroke="white" stroke-width="2.5" stroke-linecap="round" stroke-linejoin="round"/>
<path d="M12.5 14.5833V10.4167" stroke="white" stroke-width="2.5" stroke-linecap="round" stroke-linejoin="round"/>
<path d="M4.16675 13.5417C4.42181 11.5167 5.41118 9.65564 6.94722 8.31162C8.48325 6.96759 10.4591 6.23401 12.5001 6.25001C13.848 6.25144 15.1755 6.57985 16.3687 7.20705C17.5619 7.83426 18.5851 8.74154 19.3505 9.85108C20.116 10.9606 20.6009 12.2393 20.7636 13.5774C20.9263 14.9155 20.762 16.2731 20.2848 17.5338C19.8075 18.7944 19.0316 19.9205 18.0235 20.8154C17.0155 21.7102 15.8054 22.3472 14.497 22.6717C13.1887 22.9961 11.8212 22.9984 10.5118 22.6782C9.2024 22.358 7.99022 21.7249 6.97925 20.8333L4.16675 18.3333" stroke="white" stroke-width="2.5" stroke-linecap="round" stroke-linejoin="round"/>
<path d="M9.37508 17.7083H4.16675V22.9167" stroke="white" stroke-width="2.5" stroke-linecap="round" stroke-linejoin="round"/>
</svg>
