<svg width="25" height="25" viewBox="0 0 25 25" fill="none" xmlns="http://www.w3.org/2000/svg">
<path d="M16.6666 21.875V19.7917C16.6666 18.6866 16.2276 17.6268 15.4462 16.8454C14.6648 16.064 13.605 15.625 12.4999 15.625H6.24992C5.14485 15.625 4.08504 16.064 3.30364 16.8454C2.52224 17.6268 2.08325 18.6866 2.08325 19.7917V21.875" stroke="white" stroke-width="2.08333" stroke-linecap="round" stroke-linejoin="round"/>
<path d="M9.37492 11.4583C11.6761 11.4583 13.5416 9.59285 13.5416 7.29167C13.5416 4.99048 11.6761 3.125 9.37492 3.125C7.07373 3.125 5.20825 4.99048 5.20825 7.29167C5.20825 9.59285 7.07373 11.4583 9.37492 11.4583Z" stroke="white" stroke-width="2.08333" stroke-linecap="round" stroke-linejoin="round"/>
<path d="M22.9167 21.8749V19.7915C22.9161 18.8683 22.6088 17.9715 22.0432 17.2419C21.4776 16.5122 20.6856 15.9911 19.7917 15.7603" stroke="white" stroke-width="2.08333" stroke-linecap="round" stroke-linejoin="round"/>
<path d="M16.6667 3.26028C17.563 3.48976 18.3574 4.01101 18.9247 4.74186C19.492 5.4727 19.7999 6.37157 19.7999 7.29674C19.7999 8.22192 19.492 9.12078 18.9247 9.85163C18.3574 10.5825 17.563 11.1037 16.6667 11.3332" stroke="white" stroke-width="2.08333" stroke-linecap="round" stroke-linejoin="round"/>
</svg>
