<svg width="25" height="25" viewBox="0 0 25 25" fill="none" xmlns="http://www.w3.org/2000/svg">
<path d="M20.8334 12.5V8.33332H6.25008C5.69755 8.33332 5.16764 8.11383 4.77694 7.72313C4.38624 7.33243 4.16675 6.80252 4.16675 6.24999C4.16675 5.10416 5.10425 4.16666 6.25008 4.16666H18.7501V8.33332" stroke="white" stroke-width="2.5" stroke-linecap="round" stroke-linejoin="round"/>
<path d="M4.16675 6.24998V18.75C4.16675 19.8958 5.10425 20.8333 6.25008 20.8333H20.8334V16.6667" stroke="white" stroke-width="2.5" stroke-linecap="round" stroke-linejoin="round"/>
<path d="M18.7501 12.5C18.1975 12.5 17.6676 12.7195 17.2769 13.1102C16.8862 13.5009 16.6667 14.0308 16.6667 14.5833C16.6667 15.7292 17.6042 16.6667 18.7501 16.6667H22.9167V12.5H18.7501Z" stroke="white" stroke-width="2.5" stroke-linecap="round" stroke-linejoin="round"/>
</svg>
