<svg width="146" height="46" viewBox="0 0 146 46" fill="none" xmlns="http://www.w3.org/2000/svg">
<path fill-rule="evenodd" clip-rule="evenodd" d="M1.34731 1.34731C0 2.69462 0 4.86308 0 9.2V36.8C0 41.1369 0 43.3054 1.34731 44.6527C2.69462 46 4.86308 46 9.2 46L20.9091 46V31.7738L8.36361 24.5307L10.4545 20.9091L20.834 26.9017V14.6364H25.0158L25.0158 26.9017L35.3953 20.9091L37.4862 24.5307L25.0909 31.6871V46L36.8 46C41.1369 46 43.3054 46 44.6527 44.6527C46 43.3054 46 41.1369 46 36.8V9.2C46 4.86308 46 2.69462 44.6527 1.34731C43.3054 0 41.1369 0 36.8 0H9.2C4.86308 0 2.69462 0 1.34731 1.34731Z" fill="#1C1917"/>
<path d="M65.224 32C64.696 32 64.208 31.872 63.76 31.616C63.328 31.36 62.984 31.016 62.728 30.584C62.472 30.136 62.344 29.648 62.344 29.12V17.6C62.344 17.072 62.472 16.592 62.728 16.16C62.984 15.712 63.328 15.36 63.76 15.104C64.208 14.848 64.696 14.72 65.224 14.72H76.744C77.272 14.72 77.752 14.848 78.184 15.104C78.632 15.36 78.984 15.712 79.24 16.16C79.496 16.592 79.624 17.072 79.624 17.6V18.296H77.68V17.6C77.68 17.344 77.584 17.128 77.392 16.952C77.216 16.76 77 16.664 76.744 16.664H65.224C64.968 16.664 64.744 16.76 64.552 16.952C64.376 17.128 64.288 17.344 64.288 17.6V29.12C64.288 29.376 64.376 29.6 64.552 29.792C64.744 29.968 64.968 30.056 65.224 30.056H76.744C77 30.056 77.216 29.968 77.392 29.792C77.584 29.6 77.68 29.376 77.68 29.12V24.848H73.408V22.88H79.624V29.12C79.624 29.648 79.496 30.136 79.24 30.584C78.984 31.016 78.632 31.36 78.184 31.616C77.752 31.872 77.272 32 76.744 32H65.224ZM82.3139 32V17.6C82.3139 17.072 82.4419 16.592 82.6979 16.16C82.9539 15.712 83.2979 15.36 83.7299 15.104C84.1779 14.848 84.6659 14.72 85.1939 14.72H96.7139C97.2419 14.72 97.7219 14.848 98.1539 15.104C98.6019 15.36 98.9539 15.712 99.2099 16.16C99.4659 16.592 99.5939 17.072 99.5939 17.6V32H97.6499V25.688H84.2579V32H82.3139ZM84.2579 23.744H97.6499V17.6C97.6499 17.344 97.5539 17.128 97.3619 16.952C97.1859 16.76 96.9699 16.664 96.7139 16.664H85.1939C84.9379 16.664 84.7139 16.76 84.5219 16.952C84.3459 17.128 84.2579 17.344 84.2579 17.6V23.744ZM102.328 32V14.72H104.992L112.168 23.264L119.344 14.72H122.008V32H120.064V16.928L112.168 26.312L104.272 16.928V32H102.328ZM124.498 32V18.08H126.466V32H124.498ZM124.498 15.488V13.52H126.466V15.488H124.498ZM129.634 32V14.72H145.402V16.664H131.578V22.376H142.69V24.344H131.578V32H129.634Z" fill="#1C1917"/>
</svg>
